<svg xmlns="http://www.w3.org/2000/svg" viewBox="0 0 1200 700" role="img" aria-labelledby="title desc">
  <title id="title">Digital detox start image</title>
  <desc id="desc">A phone beside a cup of tea and a checklist for starting a detox.</desc>
  <defs>
    <linearGradient id="bg1" x1="0" x2="1" y1="0" y2="1">
      <stop offset="0%" stop-color="#EAF7FF"/>
      <stop offset="100%" stop-color="#D8E9FF"/>
    </linearGradient>
  </defs>
  <rect width="1200" height="700" fill="url(#bg1)"/>
  <rect x="130" y="130" width="360" height="440" rx="34" fill="#1F2937"/>
  <rect x="160" y="175" width="300" height="320" rx="18" fill="#F8FAFC"/>
  <circle cx="310" cy="525" r="18" fill="#94A3B8"/>
  <rect x="580" y="160" width="470" height="390" rx="24" fill="#FFFFFF" opacity="0.95"/>
  <rect x="620" y="220" width="300" height="22" rx="11" fill="#0EA5E9"/>
  <rect x="620" y="270" width="370" height="16" rx="8" fill="#94A3B8"/>
  <rect x="620" y="310" width="340" height="16" rx="8" fill="#94A3B8"/>
  <rect x="620" y="350" width="290" height="16" rx="8" fill="#94A3B8"/>
  <circle cx="595" cy="278" r="10" fill="#10B981"/>
  <circle cx="595" cy="318" r="10" fill="#10B981"/>
  <circle cx="595" cy="358" r="10" fill="#10B981"/>
  <ellipse cx="945" cy="585" rx="130" ry="35" fill="#CBD5E1" opacity="0.55"/>
  <rect x="855" y="470" width="180" height="130" rx="65" fill="#F59E0B"/>
  <rect x="902" y="430" width="86" height="60" rx="30" fill="#FDBA74"/>
</svg>
